<svg width="192" height="192" viewBox="0 0 192 192" fill="none" xmlns="http://www.w3.org/2000/svg">
  <rect width="192" height="192" rx="48" fill="#000000"/>
  <path d="M96 48C69.49 48 48 69.49 48 96C48 122.51 69.49 144 96 144C122.51 144 144 122.51 144 96C144 69.49 122.51 48 96 48ZM96 128C78.327 128 64 113.673 64 96C64 78.327 78.327 64 96 64C113.673 64 128 78.327 128 96C128 113.673 113.673 128 96 128Z" fill="white"/>
  <path d="M96 72C82.745 72 72 82.745 72 96C72 109.255 82.745 120 96 120C109.255 120 120 109.255 120 96C120 82.745 109.255 72 96 72Z" fill="white"/>
</svg>
