<svg width="512" height="512" viewBox="0 0 512 512" fill="none" xmlns="http://www.w3.org/2000/svg">
  <rect width="512" height="512" rx="128" fill="#000000"/>
  <path d="M256 128C185.307 128 128 185.307 128 256C128 326.693 185.307 384 256 384C326.693 384 384 326.693 384 256C384 185.307 326.693 128 256 128ZM256 341.333C208.596 341.333 170.667 303.404 170.667 256C170.667 208.596 208.596 170.667 256 170.667C303.404 170.667 341.333 208.596 341.333 256C341.333 303.404 303.404 341.333 256 341.333Z" fill="white"/>
  <path d="M256 192C219.005 192 192 219.005 192 256C192 292.995 219.005 320 256 320C292.995 320 320 292.995 320 256C320 219.005 292.995 192 256 192Z" fill="white"/>
</svg>
